<?xml version="1.0" encoding="UTF-8" standalone="no"?>
<svg
   width="86px"
   height="86px"
   enable-background="new 0 0 86 86"
   version="1.1"
   viewBox="0 0 86 86"
   xml:space="preserve"
   id="svg632"
   sodipodi:docname="harbour-flaggame.svg"
   inkscape:version="1.2.2 (b0a8486541, 2022-12-01)"
   xmlns:inkscape="http://www.inkscape.org/namespaces/inkscape"
   xmlns:sodipodi="http://sodipodi.sourceforge.net/DTD/sodipodi-0.dtd"
   xmlns="http://www.w3.org/2000/svg"
   xmlns:svg="http://www.w3.org/2000/svg"
   xmlns:rdf="http://www.w3.org/1999/02/22-rdf-syntax-ns#"
   xmlns:cc="http://creativecommons.org/ns#"
   xmlns:dc="http://purl.org/dc/elements/1.1/"><defs
   id="defs636" /><sodipodi:namedview
   pagecolor="#ffffff"
   bordercolor="#666666"
   borderopacity="1"
   objecttolerance="10"
   gridtolerance="10"
   guidetolerance="10"
   inkscape:pageopacity="0"
   inkscape:pageshadow="2"
   inkscape:window-width="1920"
   inkscape:window-height="1011"
   id="namedview634"
   showgrid="false"
   inkscape:zoom="8.8974753"
   inkscape:cx="35.347106"
   inkscape:cy="41.247656"
   inkscape:window-x="0"
   inkscape:window-y="0"
   inkscape:window-maximized="1"
   inkscape:current-layer="svg632"
   inkscape:document-rotation="0"
   inkscape:showpageshadow="2"
   inkscape:pagecheckerboard="0"
   inkscape:deskcolor="#d1d1d1" /><metadata
   id="metadata10"><rdf:RDF><cc:Work
       rdf:about=""><dc:format>image/svg+xml</dc:format><dc:type
         rdf:resource="http://purl.org/dc/dcmitype/StillImage" /></cc:Work></rdf:RDF></metadata>


<rect
   style="fill:#ffffff;fill-rule:evenodd;stroke:#000000;stroke-width:5;stroke-linecap:round;stroke-linejoin:round;stroke-dasharray:none"
   id="rect1407"
   width="81"
   height="81"
   x="2.5"
   y="2.5" /><path
   d="m 50.21067,40.661936 q 5.697807,1.21815 8.880718,5.069081 3.222207,3.85093 3.222207,9.50944 0,8.684243 -5.972872,13.438963 -5.972872,4.754719 -16.975531,4.754719 -3.693748,0 -7.623269,-0.746609 -3.890226,-0.707313 -8.055518,-2.161235 v -7.662566 q 3.300798,1.925464 7.230319,2.907844 3.929521,0.982382 8.212698,0.982382 7.466089,0 11.356315,-2.947141 3.929521,-2.947142 3.929521,-8.566357 0,-5.186968 -3.654454,-8.094812 -3.615159,-2.947141 -10.098868,-2.947141 H 33.824568 V 37.6755 h 7.151729 q 5.854986,0 8.959308,-2.318418 3.10432,-2.357713 3.10432,-6.758776 0,-4.51895 -3.222206,-6.915957 -3.182911,-2.436304 -9.155783,-2.436304 -3.261503,0 -6.994548,0.707315 -3.733046,0.707313 -8.212699,2.200532 v -7.073138 q 4.51895,-1.257447 8.448471,-1.88617 3.968815,-0.628723 7.466089,-0.628723 9.037899,0 14.303456,4.125996 5.265559,4.086702 5.265559,11.08125 0,4.872606 -2.789961,8.251993 -2.78996,3.340092 -7.937633,4.636836 z"
   id="path394"
   style="font-size:40px;line-height:1.25;letter-spacing:0px;word-spacing:0px;stroke-width:2.01191" /></svg>
