<?xml version="1.0" encoding="UTF-8"?>
<svg width="86px" height="86px" enable-background="new 0 0 86 86" version="1.1" viewBox="0 0 86 86" xml:space="preserve" xmlns="http://www.w3.org/2000/svg" xmlns:cc="http://creativecommons.org/ns#" xmlns:dc="http://purl.org/dc/elements/1.1/" xmlns:rdf="http://www.w3.org/1999/02/22-rdf-syntax-ns#" xmlns:xlink="http://www.w3.org/1999/xlink"><defs><linearGradient id="linearGradient21" x1="-13.251" x2="57.92" y1="56.551" y2="56.551" gradientTransform="matrix(.90755 0 0 .90755 2.077 5.2333)" gradientUnits="userSpaceOnUse"><stop stop-color="#66c8ff" offset="0"/><stop stop-color="#00a1ff" offset="1"/></linearGradient><linearGradient id="linearGradient2" x1=".30078" x2="85.699" y1="43" y2="43" gradientUnits="userSpaceOnUse"><stop stop-color="#00a7ff" offset="2e-8"/><stop stop-color="#66c8ff" offset="1"/></linearGradient></defs><metadata><rdf:RDF><cc:Work rdf:about=""><dc:format>image/svg+xml</dc:format><dc:type rdf:resource="http://purl.org/dc/dcmitype/StillImage"/></cc:Work></rdf:RDF></metadata>


<g fill="url(#linearGradient2)" fill-rule="evenodd" stroke-linecap="round" stroke-linejoin="round"><path d="m1.8008 84.199h43.568v-0.16797a41.2 41.2 0 0 0 38.83-41.031 41.2 41.2 0 0 0-41.199-41.199 41.2 41.2 0 0 0-41.125 38.83h-0.074219v2.3691z" color="#000000" style="-inkscape-stroke:none"/><path d="m43 0.30078c-22.611 0.0037224-41.322 17.67-42.623 40.244l0.17383-0.16406a1.5006 1.5006 0 0 0-0.25 0.25v43.568a1.5006 1.5006 0 0 0 1.5 1.5h43.568a1.5006 1.5006 0 0 0 0.18555-0.18555c22.487-1.3491 40.09-19.97 40.145-42.51a1.5006 1.5006 0 0 0 0-2e-3 1.5006 1.5006 0 0 0 0-2e-3c-4.48e-4 -23.564-19.135-42.699-42.699-42.699zm0 3c21.942 4.164e-4 39.698 17.756 39.699 39.697-0.052311 21.015-16.436 38.326-37.416 39.535a1.5006 1.5006 0 0 0-0.15625 0.16602h-41.826v-41.914a1.5006 1.5006 0 0 0 0.072266-0.06836c1.2109-21.016 18.576-37.413 39.627-37.416z" color="#000000" style="-inkscape-stroke:none"/></g><circle transform="rotate(-23.44)" cx="22.347" cy="56.556" r="31.764" fill="url(#linearGradient21)" fill-rule="evenodd"/><g transform="matrix(.65708 0 0 .65708 -30.313 -25.525)" fill="none" stroke="#fff"><circle transform="rotate(-23.44)" cx="60.882" cy="140.06" r="48" stroke-linecap="round" stroke-linejoin="round" stroke-width="3.0438"/><g stroke-width="1.5219"><path d="m92.373 60.003c2.4867 30.702 11.69 60.637 38.401 88.57"/><path d="m92.373 60.003c-41.179 28.426-10.372 99.082 38.401 88.57"/><path d="m92.373 60.003c-17.771 25.296-0.93352 78.312 38.401 88.57"/><path d="m92.216 60.071c20.711 22.801 36.27 49.98 38.401 88.57"/><path d="m92.216 60.071c48.896-10.628 79.412 60.155 38.401 88.57"/><path d="m92.216 60.071c30.611 4.3188 57.8 52.847 38.401 88.57"/><path d="m92.373 60.003c2.4867 30.702 11.69 60.637 38.401 88.57"/><path d="m92.373 60.003c-41.179 28.426-10.372 99.082 38.401 88.57"/><path d="m92.373 60.003c-17.771 25.296-0.93352 78.312 38.401 88.57"/><path d="m92.216 60.071c20.711 22.801 36.27 49.98 38.401 88.57"/><path d="m92.216 60.071c48.896-10.628 79.412 60.155 38.401 88.57"/><path d="m92.216 60.071c30.611 4.3188 57.8 52.847 38.401 88.57"/><path d="m153.17 79.658c-2.019 24.275-71.727 53.626-87.931 38.317"/><path d="m143.89 68.432c5.4704 18.916-70.548 53.383-80.575 35.027"/><path d="m112.31 56.025c-1.2236 6.6136-31.076 19.383-35.203 15.098"/><path d="m121.79 57.112c1.3072 13.072-44.005 32.211-51.622 22.375"/><path d="m132.05 60.576c3.7344 17.701-56.869 42.898-66.361 28.743"/><path d="m158.11 91.088c-0.70058 26.26-70.547 55.403-87.931 38.317"/><path d="m159.7 107.97c-3.7631 21.501-61.922 46.832-78.991 33.434"/><path d="m155.12 124.94c-11.217 15.188-39.014 27.456-58.308 25.28"/></g></g><g transform="matrix(.47823 .44225 -.44225 .47823 31.021 -69.473)" stroke-width="3.0704"><path d="m128.03 183.56-39.439-89.506" fill="none" stroke="#000" stroke-linecap="round"/><circle cx="85.383" cy="87.073" r="3" fill="#fff" fill-rule="evenodd" stroke="#000" stroke-linecap="round" stroke-linejoin="round"/><g transform="translate(-1.5143 .18474)"><path d="m107.75 121.28-13.127-29.742s14.097 5.0819 25-1.0452 25.195-1.065 25.195-1.065l6.4517 20.816s-11.04-5.6819-21.482 5.3389-22.038 5.6973-22.038 5.6973z" fill="#fff" stroke="#000" stroke-linejoin="round" stroke-width="3.0704"/></g><path d="m126.66 108.23 1.5098 3.8826m-1.7035-4.3661s-0.4842-1.2504-0.60705-1.5532-0.98077-2.6602-0.60009-3.5941c0.38064-0.93399 1.6362-3.5754 1.7102-4.097 0.0739-0.52156-0.0659-1.326-0.2427-1.7936-0.17676-0.46765-0.82736-1.0655-1.6074-1.406-0.78-0.34049-1.6586-0.19644-2.915 0.28401-1.2564 0.48044-2.2669 1.414-2.648 1.817-0.38117 0.40294-1.4524 1.6253-1.4524 1.6253" fill="none" stroke="#000"/></g></svg>
