<?xml version="1.0" encoding="UTF-8" standalone="no"?>
<svg
   width="86px"
   height="86px"
   enable-background="new 0 0 86 86"
   version="1.1"
   viewBox="0 0 86 86"
   xml:space="preserve"
   id="svg632"
   sodipodi:docname="harbour-countryquiz.svg"
   inkscape:version="1.2.2 (b0a8486541, 2022-12-01)"
   inkscape:export-filename="harbour-countryquiz.png"
   inkscape:export-xdpi="192"
   inkscape:export-ydpi="192"
   xmlns:inkscape="http://www.inkscape.org/namespaces/inkscape"
   xmlns:sodipodi="http://sodipodi.sourceforge.net/DTD/sodipodi-0.dtd"
   xmlns="http://www.w3.org/2000/svg"
   xmlns:svg="http://www.w3.org/2000/svg"
   xmlns:rdf="http://www.w3.org/1999/02/22-rdf-syntax-ns#"
   xmlns:cc="http://creativecommons.org/ns#"
   xmlns:dc="http://purl.org/dc/elements/1.1/"><defs
   id="defs636" /><sodipodi:namedview
   pagecolor="#ffffff"
   bordercolor="#666666"
   borderopacity="1"
   objecttolerance="10"
   gridtolerance="10"
   guidetolerance="10"
   inkscape:pageopacity="0"
   inkscape:pageshadow="2"
   inkscape:window-width="1920"
   inkscape:window-height="1011"
   id="namedview634"
   showgrid="false"
   inkscape:zoom="8.2560025"
   inkscape:cx="34.944272"
   inkscape:cy="47.238358"
   inkscape:window-x="0"
   inkscape:window-y="0"
   inkscape:window-maximized="1"
   inkscape:current-layer="svg632"
   inkscape:document-rotation="0"
   inkscape:showpageshadow="2"
   inkscape:pagecheckerboard="true"
   inkscape:deskcolor="#d1d1d1" /><metadata
   id="metadata10"><rdf:RDF><cc:Work
       rdf:about=""><dc:format>image/svg+xml</dc:format><dc:type
         rdf:resource="http://purl.org/dc/dcmitype/StillImage" /></cc:Work></rdf:RDF></metadata>


<rect
   style="fill:#ffffff;fill-rule:evenodd;stroke:#ffffff;stroke-width:3;stroke-linecap:round;stroke-linejoin:round;stroke-dasharray:none"
   id="rect1407"
   width="82.400002"
   height="82.400002"
   x="1.7999992"
   y="1.7999992" /><g
   id="g1509"
   transform="matrix(0.73723995,0,0,0.73723995,-39.256661,-33.885247)"><circle
     style="fill:#ffffff;fill-rule:evenodd;stroke:#000000;stroke-width:1.32292;stroke-linecap:round;stroke-linejoin:round"
     id="path1151"
     cx="60.881859"
     cy="140.06459"
     r="48.268135"
     transform="rotate(-23.44)" /><path
     style="fill:none;stroke:#000000;stroke-width:0.264583px;stroke-linecap:butt;stroke-linejoin:miter;stroke-opacity:1"
     d="m 92.37329,60.003045 c 2.486675,30.702187 11.68991,60.636635 38.40102,88.569825"
     id="path1265"
     sodipodi:nodetypes="cc" /><path
     style="fill:none;stroke:#000000;stroke-width:0.264583px;stroke-linecap:butt;stroke-linejoin:miter;stroke-opacity:1"
     d="M 92.37329,60.003045 C 51.19422,88.42913 82.00146,159.08504 130.77431,148.57287"
     id="path1375"
     sodipodi:nodetypes="cc" /><path
     style="fill:none;stroke:#000000;stroke-width:0.264583px;stroke-linecap:butt;stroke-linejoin:miter;stroke-opacity:1"
     d="M 92.37329,60.003045 C 74.602383,85.298564 91.439771,138.31457 130.77431,148.57287"
     id="path1377"
     sodipodi:nodetypes="cc" /><path
     style="fill:none;stroke:#000000;stroke-width:0.264583px;stroke-linecap:butt;stroke-linejoin:miter;stroke-opacity:1"
     d="M 92.215989,60.071246 C 112.92653,82.872152 128.48572,110.05086 130.61701,148.64107"
     id="path1434"
     sodipodi:nodetypes="cc" /><path
     style="fill:none;stroke:#000000;stroke-width:0.264583px;stroke-linecap:butt;stroke-linejoin:miter;stroke-opacity:1"
     d="M 92.215989,60.071246 C 141.11194,49.443706 171.62773,120.22598 130.61701,148.64107"
     id="path1436"
     sodipodi:nodetypes="cc" /><path
     style="fill:none;stroke:#000000;stroke-width:0.264583px;stroke-linecap:butt;stroke-linejoin:miter;stroke-opacity:1"
     d="m 92.215989,60.071246 c 30.610721,4.318803 57.799531,52.846764 38.401021,88.569824"
     id="path1438"
     sodipodi:nodetypes="cc" /><path
     style="fill:none;stroke:#000000;stroke-width:0.264583px;stroke-linecap:butt;stroke-linejoin:miter;stroke-opacity:1"
     d="m 92.37329,60.003045 c 2.486675,30.702187 11.68991,60.636635 38.40102,88.569825"
     id="path1440"
     sodipodi:nodetypes="cc" /><path
     style="fill:none;stroke:#000000;stroke-width:0.264583px;stroke-linecap:butt;stroke-linejoin:miter;stroke-opacity:1"
     d="M 92.37329,60.003045 C 51.19422,88.42913 82.00146,159.08504 130.77431,148.57287"
     id="path1442"
     sodipodi:nodetypes="cc" /><path
     style="fill:none;stroke:#000000;stroke-width:0.264583px;stroke-linecap:butt;stroke-linejoin:miter;stroke-opacity:1"
     d="M 92.37329,60.003045 C 74.602383,85.298564 91.439771,138.31457 130.77431,148.57287"
     id="path1444"
     sodipodi:nodetypes="cc" /><path
     style="fill:none;stroke:#000000;stroke-width:0.264583px;stroke-linecap:butt;stroke-linejoin:miter;stroke-opacity:1"
     d="M 92.215989,60.071246 C 112.92653,82.872152 128.48572,110.05086 130.61701,148.64107"
     id="path1446"
     sodipodi:nodetypes="cc" /><path
     style="fill:none;stroke:#000000;stroke-width:0.264583px;stroke-linecap:butt;stroke-linejoin:miter;stroke-opacity:1"
     d="M 92.215989,60.071246 C 141.11194,49.443706 171.62773,120.22598 130.61701,148.64107"
     id="path1448"
     sodipodi:nodetypes="cc" /><path
     style="fill:none;stroke:#000000;stroke-width:0.264583px;stroke-linecap:butt;stroke-linejoin:miter;stroke-opacity:1"
     d="m 92.215989,60.071246 c 30.610721,4.318803 57.799531,52.846764 38.401021,88.569824"
     id="path1450"
     sodipodi:nodetypes="cc" /><path
     style="fill:none;stroke:#000000;stroke-width:0.264583px;stroke-linecap:butt;stroke-linejoin:miter;stroke-opacity:1"
     d="M 153.16847,79.657763 C 151.14946,103.93274 81.441346,133.28419 65.237217,117.97446"
     id="path1466"
     sodipodi:nodetypes="cc" /><path
     style="fill:none;stroke:#000000;stroke-width:0.264583px;stroke-linecap:butt;stroke-linejoin:miter;stroke-opacity:1"
     d="M 143.88739,68.432066 C 149.35778,87.34759 73.33911,121.81517 63.312791,103.45858"
     id="path1468"
     sodipodi:nodetypes="cc" /><path
     style="fill:none;stroke:#000000;stroke-width:0.264583px;stroke-linecap:butt;stroke-linejoin:miter;stroke-opacity:1"
     d="M 112.30838,56.025412 C 111.0848,62.63901 81.232399,75.408526 77.105448,71.123792"
     id="path1472"
     sodipodi:nodetypes="cc" /><path
     style="fill:none;stroke:#000000;stroke-width:0.264583px;stroke-linecap:butt;stroke-linejoin:miter;stroke-opacity:1"
     d="m 121.78576,57.112446 c 1.30722,13.072369 -44.004923,32.210947 -51.621597,22.37525"
     id="path1474"
     sodipodi:nodetypes="cc" /><path
     style="fill:none;stroke:#000000;stroke-width:0.264583px;stroke-linecap:butt;stroke-linejoin:miter;stroke-opacity:1"
     d="M 132.04611,60.576436 C 135.78047,78.277915 75.176735,103.47458 65.685362,89.319181"
     id="path1476"
     sodipodi:nodetypes="cc" /><path
     style="fill:none;stroke:#000000;stroke-width:0.264583px;stroke-linecap:butt;stroke-linejoin:miter;stroke-opacity:1"
     d="M 158.11164,91.087535 C 157.41106,117.34711 87.564664,146.4904 70.180381,129.40424"
     id="path1480"
     sodipodi:nodetypes="cc" /><path
     style="fill:none;stroke:#000000;stroke-width:0.264583px;stroke-linecap:butt;stroke-linejoin:miter;stroke-opacity:1"
     d="m 159.7016,107.96591 c -3.76307,21.50146 -61.921989,46.83231 -78.990772,33.4339"
     id="path1484"
     sodipodi:nodetypes="cc" /><path
     style="fill:none;stroke:#000000;stroke-width:0.264583px;stroke-linecap:butt;stroke-linejoin:miter;stroke-opacity:1"
     d="m 155.12076,124.94115 c -11.21688,15.18783 -39.014,27.45625 -58.30785,25.2804"
     id="path1486"
     sodipodi:nodetypes="cc" /></g><g
   id="g9176"
   transform="matrix(0.48711231,0,0,0.48711231,-15.83891,-20.35675)"><path
     style="fill:none;stroke:#000000;stroke-width:5;stroke-linecap:round;stroke-linejoin:miter;stroke-dasharray:none;stroke-opacity:1"
     d="M 128.02814,183.56283 88.588759,94.05722"
     id="path4173" /><circle
     style="fill:#ffffff;fill-rule:evenodd;stroke:#000000;stroke-width:5;stroke-linecap:round;stroke-linejoin:round;stroke-dasharray:none"
     id="path4229"
     cx="83.889107"
     cy="83.568459"
     r="4.8290391" /><g
     id="g9168"><path
       style="fill:#ffffff;stroke:#000000;stroke-width:5;stroke-linecap:butt;stroke-linejoin:round;stroke-dasharray:none;stroke-opacity:1"
       d="M 107.75232,121.27935 94.6255,91.537375 c 0,0 14.09744,5.081882 25.00004,-1.045166 10.9026,-6.127048 25.19486,-1.065012 25.19486,-1.065012 l 6.45167,20.815983 c 0,0 -11.03954,-5.68191 -21.48181,5.3389 -10.44227,11.02081 -22.03794,5.69727 -22.03794,5.69727 z"
       id="path4231"
       sodipodi:nodetypes="cczcczc" /></g><g
     aria-label="?"
     id="text4287"
     style="font-size:43.2274px;line-height:1.25;letter-spacing:0px;word-spacing:0px;stroke-width:1.08069"
     transform="matrix(0.620149,-0.01149079,0.01149079,0.620149,233.82927,55.438438)" /><path
     id="path7556"
     style="fill:none;stroke:#000000;stroke-width:5;stroke-linecap:butt;stroke-linejoin:miter;stroke-dasharray:none;stroke-opacity:1"
     d="m 126.66076,108.23324 1.50983,3.88256 m -1.70349,-4.3661 c 0,0 -0.4842,-1.25042 -0.60705,-1.55325 -0.12285,-0.30283 -0.98077,-2.66015 -0.60009,-3.59412 0.38064,-0.93399 1.63621,-3.575423 1.71021,-4.096978 0.0739,-0.521558 -0.0659,-1.325962 -0.2427,-1.793624 -0.17676,-0.467654 -0.82736,-1.065529 -1.60735,-1.406023 -0.78,-0.340494 -1.65859,-0.196443 -2.915,0.284013 -1.25642,0.480441 -2.26687,1.414024 -2.64805,1.816968 -0.38117,0.402943 -1.4524,1.625336 -1.4524,1.625336"
     sodipodi:nodetypes="cccssscczzc" /></g></svg>
