<?xml version="1.0" encoding="UTF-8" standalone="no"?>
<!-- Created with Inkscape (http://www.inkscape.org/) -->

<svg
   version="1.1"
   id="svg2"
   width="1020"
   height="600"
   viewBox="0 0 1020 600"
   sodipodi:docname="convencao de bucan.svg"
   inkscape:export-filename="convencao de bucan.png"
   inkscape:export-xdpi="182.19128"
   inkscape:export-ydpi="182.19128"
   inkscape:version="1.2.2 (732a01da63, 2022-12-09)"
   xmlns:inkscape="http://www.inkscape.org/namespaces/inkscape"
   xmlns:sodipodi="http://sodipodi.sourceforge.net/DTD/sodipodi-0.dtd"
   xmlns="http://www.w3.org/2000/svg"
   xmlns:svg="http://www.w3.org/2000/svg">
  <defs
     id="defs6" />
  <sodipodi:namedview
     id="namedview4"
     pagecolor="#ffffff"
     bordercolor="#000000"
     borderopacity="0.25"
     inkscape:showpageshadow="2"
     inkscape:pageopacity="0.0"
     inkscape:pagecheckerboard="0"
     inkscape:deskcolor="#d1d1d1"
     showgrid="false"
     inkscape:zoom="0.5"
     inkscape:cx="197"
     inkscape:cy="478"
     inkscape:window-width="1600"
     inkscape:window-height="837"
     inkscape:window-x="-8"
     inkscape:window-y="-8"
     inkscape:window-maximized="1"
     inkscape:current-layer="g8" />
  <g
     id="g8"
     inkscape:groupmode="layer"
     inkscape:label="convencao de bucan"
     transform="matrix(1.3333333,0,0,-1.3333333,-409.39866,401.35999)">
    <g
       id="g10"
       transform="matrix(2.6688744,0,0,2.6688744,-512.42622,-497.87543)" />
    <path
       d="m 307.049,-149.00003 h 764.9792 V 301.05602 H 307.049 Z"
       style="fill:#003893;fill-opacity:1;fill-rule:nonzero;stroke:none;stroke-width:2.81232"
       id="path344" />
    <g
       id="g921"
       transform="matrix(2.6703684,0,0,2.6688744,-512.88493,-497.87543)">
      <path
         d="m 307.049,171.936 h 286.73528 v 14.343 H 307.049 Z"
         style="fill:#ffffff;fill-opacity:1;fill-rule:nonzero;stroke:none;stroke-width:1.06456"
         id="path346" />
      <path
         d="m 307.049,179.625 h 286.84181 v 35.343 H 307.049 Z"
         style="fill:#ffffff;fill-opacity:1;fill-rule:nonzero;stroke:none;stroke-width:1.67108"
         id="path348" />
    </g>
    <path
       d="m 307.049,-0.70148716 h 766.0424 V 37.578179 H 307.049 Z"
       style="fill:#cf2027;fill-opacity:1;fill-rule:nonzero;stroke:none;stroke-width:2.84313"
       id="path350" />
    <g
       id="g352"
       transform="matrix(2.6688744,0,0,2.6688744,487.01122,-0.70148716)"
       style="fill:#f7d116;fill-opacity:1">
      <path
         d="m 0,0 1.785,-5.484 h 5.78 L 2.89,-8.875 4.676,-14.36 0,-10.97 l -4.677,-3.39 1.787,5.485 -4.676,3.391 h 5.779"
         style="fill:#f7d116;fill-opacity:1;fill-rule:nonzero;stroke:none"
         id="path354" />
    </g>
    <g
       id="g356"
       transform="matrix(2.6688744,0,0,2.6688744,485.73283,75.903215)"
       style="fill:#f7d116;fill-opacity:1">
      <path
         d="m 0,0 1.786,-5.483 h 5.78 L 2.89,-8.872 4.676,-14.356 0,-10.967 l -4.676,-3.389 1.786,5.484 -4.675,3.389 h 5.779"
         style="fill:#f7d116;fill-opacity:1;fill-rule:nonzero;stroke:none"
         id="path358" />
    </g>
    <g
       id="g360"
       transform="matrix(2.6688744,0,0,2.6688744,703.83859,75.855175)"
       style="fill:#f7d116;fill-opacity:1">
      <path
         d="m 0,0 1.786,-5.472 h 5.78 L 2.89,-8.855 4.676,-14.327 0,-10.945 l -4.676,-3.382 1.786,5.472 -4.676,3.383 h 5.779"
         style="fill:#f7d116;fill-opacity:1;fill-rule:nonzero;stroke:none"
         id="path362" />
    </g>
    <g
       id="g364"
       transform="matrix(2.6688744,0,0,2.6688744,702.41341,-0.74152026)"
       style="fill:#f7d116;fill-opacity:1">
      <path
         d="M 0,0 1.786,-5.473 H 7.567 L 2.891,-8.856 4.677,-14.329 0,-10.947 l -4.675,-3.382 1.785,5.473 -4.675,3.383 h 5.779"
         style="fill:#f7d116;fill-opacity:1;fill-rule:nonzero;stroke:none"
         id="path366" />
    </g>
    <g
       id="g368"
       transform="matrix(2.6688744,0,0,2.6688744,594.76168,154.67505)"
       style="fill:#f7d116;fill-opacity:1">
      <path
         d="M 0,0 1.786,-5.497 H 7.567 L 2.89,-8.894 4.677,-14.391 0,-10.994 l -4.676,-3.397 1.786,5.497 -4.675,3.397 h 5.778"
         style="fill:#f7d116;fill-opacity:1;fill-rule:nonzero;stroke:none"
         id="path370" />
    </g>
    <g
       id="g372"
       transform="matrix(2.6688744,0,0,2.6688744,594.81774,-75.184434)"
       style="fill:#f7d116;fill-opacity:1">
      <path
         d="m 0,0 1.785,-5.497 h 5.78 L 2.89,-8.894 4.676,-14.391 0,-10.994 l -4.677,-3.397 1.787,5.497 -4.676,3.397 h 5.779"
         style="fill:#f7d116;fill-opacity:1;fill-rule:nonzero;stroke:none"
         id="path374" />
    </g>
    <g
       id="g376"
       transform="matrix(2.6688744,0,0,2.6688744,527.33791,132.79828)"
       style="fill:#f7d116;fill-opacity:1">
      <path
         d="M 0,0 1.786,-5.497 H 7.567 L 2.89,-8.894 4.677,-14.391 0,-10.994 l -4.676,-3.397 1.786,5.497 -4.675,3.397 h 5.778"
         style="fill:#f7d116;fill-opacity:1;fill-rule:nonzero;stroke:none"
         id="path378" />
    </g>
    <g
       id="g380"
       transform="matrix(2.6688744,0,0,2.6688744,662.10539,-53.358379)"
       style="fill:#f7d116;fill-opacity:1">
      <path
         d="M 0,0 1.785,-5.497 H 7.566 L 2.89,-8.894 4.677,-14.392 0,-10.995 l -4.676,-3.397 1.786,5.498 -4.676,3.397 h 5.779"
         style="fill:#f7d116;fill-opacity:1;fill-rule:nonzero;stroke:none"
         id="path382" />
    </g>
    <g
       id="g384"
       transform="matrix(2.6688744,0,0,2.6688744,529.69452,-55.095817)"
       style="fill:#f7d116;fill-opacity:1">
      <path
         d="m 0,0 1.786,-5.497 h 5.78 L 2.89,-8.894 4.676,-14.392 0,-10.994 l -4.676,-3.398 1.786,5.498 -4.676,3.397 h 5.78"
         style="fill:#f7d116;fill-opacity:1;fill-rule:nonzero;stroke:none"
         id="path386" />
    </g>
    <g
       id="g388"
       transform="matrix(2.6688744,0,0,2.6688744,616.65177,134.47967)"
       style="fill:#f7d116;fill-opacity:1">
      <path
         d="m 16.29901,0 1.786001,-5.497 h 5.780003 l -4.675003,-3.397 1.786001,-5.497 -4.677002,3.397 -4.676003,-3.397 1.786001,5.497 -4.6750017,3.397 h 5.7790027"
         style="fill:#f7d116;fill-opacity:1;fill-rule:nonzero;stroke:none"
         id="path390" />
    </g>
  </g>
</svg>
