<svg xmlns:inkscape="http://www.inkscape.org/namespaces/inkscape" xmlns:sodipodi="http://sodipodi.sourceforge.net/DTD/sodipodi-0.dtd" xmlns:xlink="http://www.w3.org/1999/xlink" xmlns="http://www.w3.org/2000/svg" xmlns:svg="http://www.w3.org/2000/svg" width="1000" height="600" viewBox="0 0 500 300" version="1.1" id="svg31" sodipodi:docname="grd.svg" inkscape:version="1.2.2 (b0a8486541, 2022-12-01)">
  <sodipodi:namedview id="namedview33" pagecolor="#ffffff" bordercolor="#666666" borderopacity="1.0" inkscape:showpageshadow="2" inkscape:pageopacity="0.0" inkscape:pagecheckerboard="0" inkscape:deskcolor="#d1d1d1" showgrid="false" inkscape:zoom="1.293" inkscape:cx="423.82057" inkscape:cy="300.07734" inkscape:window-width="1920" inkscape:window-height="1011" inkscape:window-x="0" inkscape:window-y="0" inkscape:window-maximized="1" inkscape:current-layer="svg31"/>
  <defs id="defs29">
    <path id="a" d="m150 259.5-11.462 35.276 30.007-21.802h-37.091l30.007 21.802z"/>
  </defs>
  <path fill="#ce1126" d="M0 0h500v300H0z" id="path2"/>
  <path fill="#007a5e" d="M42 42h416v216H42z" id="path4"/>
  <path d="M42 42h416L42 258h416z" fill="#fcd116" id="path6"/>
  <circle r="36" cy="150" cx="250" fill="#ce1126" id="circle8"/>
  <path d="M67.944 150.113c4.262 8.515 12.757 17.893 20.313 21.321.367-8.513-2.341-19.515-6.224-28.33z" fill="#ce1126" id="path10"/>
  <path d="M60.284 121.487c6.35 13.695-17.533 45.856 21.453 53.976-4.736-6.643-7.33-17.752-6.04-26.456 8.095 3.448 16.212 11.464 19.402 18.972 13.444-37.484-26.456-33.922-34.815-46.492z" fill="#fcd116" id="path12"/>
  <use xlink:href="#a" fill="#fcd116" id="use14"/>
  <use xlink:href="#a" x="100" fill="#fcd116" id="use16"/>
  <use xlink:href="#a" x="200" fill="#fcd116" id="use18"/>
  <use xlink:href="#a" x="200" y="-258" fill="#fcd116" id="use20"/>
  <use xlink:href="#a" x="100" y="-258" fill="#fcd116" id="use22"/>
  <use xlink:href="#a" y="-258" fill="#fcd116" id="use24"/>
  <path d="m250 117-19.397 59.697 50.782-36.895h-62.769l50.782 36.895z" fill="#fcd116" id="path26"/>
</svg>