<svg xmlns:inkscape="http://www.inkscape.org/namespaces/inkscape" xmlns:sodipodi="http://sodipodi.sourceforge.net/DTD/sodipodi-0.dtd" xmlns:xlink="http://www.w3.org/1999/xlink" xmlns="http://www.w3.org/2000/svg" xmlns:svg="http://www.w3.org/2000/svg" version="1.1" width="726" height="885" viewBox="-17.582 -4.664 71.571 87.246" id="svg41" sodipodi:docname="npl.svg" inkscape:version="1.2.2 (b0a8486541, 2022-12-01)">
  <defs id="defs45"/>
  <sodipodi:namedview id="namedview43" pagecolor="#ffffff" bordercolor="#666666" borderopacity="1.0" inkscape:showpageshadow="2" inkscape:pageopacity="0.0" inkscape:pagecheckerboard="0" inkscape:deskcolor="#d1d1d1" showgrid="false" inkscape:zoom="0.89039548" inkscape:cx="272.91244" inkscape:cy="442.5" inkscape:window-width="1920" inkscape:window-height="1011" inkscape:window-x="0" inkscape:window-y="0" inkscape:window-maximized="1" inkscape:current-layer="svg41"/>
  <title id="title2">Flag of Nepal</title>
  <!-- Coding according to the official construction in &quot;Constitution of the Kingdom of Nepal, Article 5, Schedule 1&quot;, adopted in November 1990 -->
  <path id="path61" d="M -15,37.5735931288 h 60 L -15,0 v 80 h 60 L -15,20 z" fill="#DC143C" stroke-width="5.165" stroke="#003893"/>
  <path id="a" d="M -15,37.5735931288 h 60 L -15,0 v 80 h 60 L -15,20 z" fill="#DC143C"/>
  <g fill="#fff" id="g39">
    <path d="M -11.9502769431,23.4834957055 A 12.8400974233,12.8400974233 0 0,0 11.9502769431,23.4834957055 A 11.9502769431 11.9502769431 0 0,1 -11.9502769431,23.4834957055" id="path7"/>
    <g transform="translate(0 29.045) scale(5.56106)" id="g22">
      <circle r="1" id="circle9"/>
      <g id="d">
        <g id="c">
          <path id="b" d="M 0.195090322016,-0.980785280403 L 0,-1.388784109750 L -0.195090322016,-0.980785280403" transform="rotate(11.25)"/>
          <use xlink:href="#b" transform="rotate(22.5)" id="use12"/>
          <use xlink:href="#b" transform="rotate(45)" id="use14"/>
        </g>
        <use xlink:href="#c" transform="rotate(67.5)" id="use17"/>
      </g>
      <use xlink:href="#d" transform="scale(-1 1)" id="use20"/>
    </g>
    <g transform="matrix(8.1434 0 0 8.1434 0 58.787)" id="g37">
      <circle r="1" id="circle24"/>
      <g id="g">
        <g id="f">
          <path id="e" d="M 0.258819045103,0.965925826289 L 0,1.576749285537 L -0.258819045103,0.965925826289"/>
          <use xlink:href="#e" transform="rotate(180)" id="use27"/>
        </g>
        <use xlink:href="#f" transform="rotate(90)" id="use30"/>
      </g>
      <use xlink:href="#g" transform="rotate(30)" id="use33"/>
      <use xlink:href="#g" transform="rotate(60)" id="use35"/>
    </g>
  </g>
</svg>