<svg xmlns:inkscape="http://www.inkscape.org/namespaces/inkscape" xmlns:sodipodi="http://sodipodi.sourceforge.net/DTD/sodipodi-0.dtd" xmlns:xlink="http://www.w3.org/1999/xlink" xmlns="http://www.w3.org/2000/svg" xmlns:svg="http://www.w3.org/2000/svg" width="900" height="600" viewBox="0 0 10800 7200" fill="#ee1c25" version="1.1" id="svg24" sodipodi:docname="svk.svg" inkscape:version="1.2.2 (b0a8486541, 2022-12-01)">
  <sodipodi:namedview id="namedview26" pagecolor="#ffffff" bordercolor="#666666" borderopacity="1.0" inkscape:showpageshadow="2" inkscape:pageopacity="0.0" inkscape:pagecheckerboard="0" inkscape:deskcolor="#d1d1d1" showgrid="false" inkscape:zoom="1.3133333" inkscape:cx="424.11168" inkscape:cy="300" inkscape:window-width="1920" inkscape:window-height="1011" inkscape:window-x="0" inkscape:window-y="0" inkscape:window-maximized="1" inkscape:current-layer="svg24"/>
  <title id="title2">Flag of Slovakia</title>
  <defs id="defs6"/>
  <path id="s" d="m4678 1746c0 0 56 561 56 1683-8 1146-865 1726-1494 2031-629-305-1486-885-1494-2031 0-1122 56-1683 56-1683z"/>
  <g transform="scale(1200)" id="g14">
    <path fill="#fff" d="m0 0h9v6H0z" id="path8"/>
    <path fill="#0b4ea2" d="m0 2h9v4H0z" id="path10"/>
    <path d="m0 4h9v2H0z" id="path12"/>
  </g>
  <use xlink:href="#s" id="use16"/>
  <path fill="#fff" d="m3113 4800V3397c-475 0-610 42-752 85a2323 2323 0 0 0 0-431c142 43 277 85 752 85v-390c-150 0-357 6-595 87a2323 2323 0 0 0 0-432c238 80 445 86 595 86 0-113-35-356-79-557a2323 2323 0 0 0 412 0c-44 201-79 444-79 557 150 0 357-6 595-86a2323 2323 0 0 0 0 432c-238-81-445-87-595-87v390c475 0 610-42 752-85a2323 2323 0 0 0 0 431c-142-43-277-85-752-85v1403z" id="path18"/>
  <path id="path20" d="M 3240 3950.5781 A 584 1084 0 0 0 2782.0078 4362 A 507 867 0 0 0 2067.9375 4509.8672 C 2376.6171 4976.9761 2851.3372 5271.5387 3240 5460 C 3627.1336 5272.2802 4099.3311 4978.9346 4408.1016 4515.0234 A 507 867 0 0 0 3697.9922 4362 A 584 1084 0 0 0 3240 3950.5781 z " fill="#0b4ea2"/>
  <use xlink:href="#s" fill="none" stroke="#fff" stroke-width="108" id="use22"/>
</svg>