<?xml version="1.0" encoding="UTF-8"?>
<svg width="1200" height="600" fill="#fedd00" version="1.1" viewBox="0 0 120 60" xmlns="http://www.w3.org/2000/svg" xmlns:cc="http://creativecommons.org/ns#" xmlns:dc="http://purl.org/dc/elements/1.1/" xmlns:rdf="http://www.w3.org/1999/02/22-rdf-syntax-ns#" xmlns:xlink="http://www.w3.org/1999/xlink">
    <title>Flag of Tuvalu</title>
    <defs>
        <path id="a" d="m0-5.2573 3.0902 9.5106L-5-1.6246H5l-8.0902 5.8779z"/>
        <path id="b" d="m0 5.2573-3.0902-9.5106L5 1.6246H-5l8.0902-5.8779z"/>
    </defs>
    <path d="m0 0h120v60H0z" fill="#012169"/>
    <path d="m60 0h60v60H0V30h60z" fill="#009cde"/>
    <use x="65.5" y="54" xlink:href="#a"/>
    <use x="78" y="38.5" xlink:href="#b"/>
    <use x="78" y="51" xlink:href="#b"/>
    <use x="90.5" y="21.5" xlink:href="#b"/>
    <use x="90.5" y="47.5" xlink:href="#b"/>
    <use x="101" y="17.5" xlink:href="#b"/>
    <use x="101" y="38.5" xlink:href="#a"/>
    <use x="111.5" y="8" xlink:href="#a"/>
    <use x="111.5" y="32" xlink:href="#a"/>
    <g stroke-width=".99999">
        <path d="m3.8972e-4 3.9158e-4 59.999 30m0-30-59.999 30" color="#000000" style="-inkscape-stroke:none"/>
        <path d="m3.8972e-4 3.9158e-4v3.3545l23.291 11.646-23.291 11.646v3.3545h6.7093l23.291-11.645 23.291 11.645h6.7093v-3.3545l-23.291-11.646 23.291-11.646v-3.3545h-6.7093l-23.291 11.645-23.291-11.645z" color="#000000" fill="#fff" style="-inkscape-stroke:none"/>
        <path d="m3.8972e-4 3.9158e-4 59.999 30m0-30-59.999 30" color="#000000" style="-inkscape-stroke:none"/>
        <path d="m3.8972e-4 3.9158e-4v2.2363l25.527 12.764h4.4726l-30-15zm30 15 30-15h-4.4726l-25.527 12.764v2.2363zm0 0 30 15v-2.2363l-25.527-12.764h-4.4726zm0 0-30 15h4.4726l25.527-12.764v-2.2363z" color="#000000" fill="#c8102e" style="-inkscape-stroke:none"/>
        <path d="m30 3.9158e-4v30m-30-15h59.999" color="#000000" style="-inkscape-stroke:none"/>
        <path d="m25 3.9158e-4v9.9999h-25v9.9999h25v9.9999h9.9999v-9.9999h25v-9.9999h-25v-9.9999z" color="#000000" fill="#fff" style="-inkscape-stroke:none"/>
        <path d="m30 3.9158e-4v30m-30-15h59.999" color="#000000" style="-inkscape-stroke:none"/>
        <path d="m27 3.9158e-4v12h-27v5.9999h27v12h5.9999v-12h27v-5.9999h-27v-12z" color="#000000" fill="#c8102e" style="-inkscape-stroke:none"/>
    </g>
    <metadata>
        <rdf:RDF>
            <cc:Work rdf:about="">
                <dc:title>Flag of Tuvalu</dc:title>
            </cc:Work>
        </rdf:RDF>
    </metadata>
</svg>
