<?xml version="1.0" encoding="UTF-8"?>
<svg width="400" height="400" enable-background="new 0 0 86 86" version="1.1" viewBox="0 0 400 400" xml:space="preserve" xmlns="http://www.w3.org/2000/svg" xmlns:cc="http://creativecommons.org/ns#" xmlns:dc="http://purl.org/dc/elements/1.1/" xmlns:rdf="http://www.w3.org/1999/02/22-rdf-syntax-ns#"><metadata><rdf:RDF><cc:Work rdf:about=""><dc:format>image/svg+xml</dc:format><dc:type rdf:resource="http://purl.org/dc/dcmitype/StillImage"/></cc:Work></rdf:RDF></metadata><g fill="#fff" fill-opacity=".2"><g transform="translate(17.99 21.947)" style="font-variation-settings:normal;paint-order:markers stroke fill"><g fill="#fff" fill-opacity=".2"><g transform="translate(1.3105 -.7004)"><rect x="37.438" y="167.98" width="30.74" height="22.244" style="paint-order:markers stroke fill"/><rect x="79.992" y="167.98" width="30.74" height="22.244" style="paint-order:markers stroke fill"/></g><g transform="translate(1.3105 29.66)"><rect x="37.438" y="167.98" width="30.74" height="22.244" style="paint-order:markers stroke fill"/><rect x="79.992" y="167.98" width="30.74" height="22.244" style="paint-order:markers stroke fill"/></g><g transform="translate(1.3105 60.02)"><rect x="37.438" y="167.98" width="30.74" height="22.244" style="paint-order:markers stroke fill"/><rect x="79.992" y="167.98" width="30.74" height="22.244" style="paint-order:markers stroke fill"/></g><g transform="translate(1.3105 90.38)"><rect x="37.438" y="167.98" width="30.74" height="22.244" style="paint-order:markers stroke fill"/><rect x="79.992" y="167.98" width="30.74" height="22.244" style="paint-order:markers stroke fill"/></g><g transform="translate(1.3105,120.74)"><rect x="37.438" y="167.98" width="30.74" height="22.244" style="paint-order:markers stroke fill"/><rect x="79.992" y="167.98" width="30.74" height="22.244" style="paint-order:markers stroke fill"/></g></g><rect x="24.75" y="154.93" width="101.51" height="184.92" fill="none" stroke="#fff" stroke-linecap="round" stroke-linejoin="round" stroke-opacity=".4" stroke-width="10" style="paint-order:markers stroke fill"/></g><g transform="translate(-6.2664 22.321)" style="font-variation-settings:normal;paint-order:markers stroke fill"><g fill="#fff" fill-opacity=".2"><g transform="translate(.51231)"><rect transform="rotate(90)" x="76.227" y="-204.54" width="30.74" height="22.244" style="paint-order:markers stroke fill"/><rect transform="rotate(90)" x="76.227" y="-236.42" width="30.74" height="22.244" style="paint-order:markers stroke fill"/><rect transform="rotate(90)" x="76.227" y="-268.29" width="30.74" height="22.244" style="paint-order:markers stroke fill"/></g><g transform="translate(-.46305 39.353)"><rect transform="rotate(90)" x="76.227" y="-204.54" width="30.74" height="22.244" style="paint-order:markers stroke fill"/><rect transform="rotate(90)" x="76.227" y="-236.42" width="30.74" height="22.244" style="paint-order:markers stroke fill"/><rect transform="rotate(90)" x="76.227" y="-268.29" width="30.74" height="22.244" style="paint-order:markers stroke fill"/></g><g transform="translate(-.46305 78.707)"><rect transform="rotate(90)" x="76.227" y="-204.54" width="30.74" height="22.244" style="paint-order:markers stroke fill"/><rect transform="rotate(90)" x="76.227" y="-236.42" width="30.74" height="22.244" style="paint-order:markers stroke fill"/><rect transform="rotate(90)" x="76.227" y="-268.29" width="30.74" height="22.244" style="paint-order:markers stroke fill"/></g><g transform="translate(-.46305 118.06)"><rect transform="rotate(90)" x="76.227" y="-204.54" width="30.74" height="22.244" style="paint-order:markers stroke fill"/><rect transform="rotate(90)" x="76.227" y="-236.42" width="30.74" height="22.244" style="paint-order:markers stroke fill"/><rect transform="rotate(90)" x="76.227" y="-268.29" width="30.74" height="22.244" style="paint-order:markers stroke fill"/></g><g transform="translate(-.46305 157.41)"><rect transform="rotate(90)" x="76.227" y="-204.54" width="30.74" height="22.244" style="paint-order:markers stroke fill"/><rect transform="rotate(90)" x="76.227" y="-236.42" width="30.74" height="22.244" style="paint-order:markers stroke fill"/><rect transform="rotate(90)" x="76.227" y="-268.29" width="30.74" height="22.244" style="paint-order:markers stroke fill"/></g><g transform="translate(-.46304 196.77)"><rect transform="rotate(90)" x="76.227" y="-204.54" width="30.74" height="22.244" style="paint-order:markers stroke fill"/><rect transform="rotate(90)" x="76.227" y="-236.42" width="30.74" height="22.244" style="paint-order:markers stroke fill"/><rect transform="rotate(90)" x="76.227" y="-268.29" width="30.74" height="22.244" style="paint-order:markers stroke fill"/></g></g><rect x="168.51" y="60.338" width="113.82" height="279.13" fill="none" stroke="#fff" stroke-linecap="round" stroke-linejoin="round" stroke-opacity=".4" stroke-width="10" style="paint-order:markers stroke fill"/></g><g transform="translate(-15.901 23.331)" style="font-variation-settings:normal;paint-order:markers stroke fill"><g fill="#fff" fill-opacity=".2"><rect transform="rotate(90)" x="134.08" y="-329.3" width="30.74" height="22.244" style="paint-order:markers stroke fill"/><rect transform="rotate(90)" x="134.08" y="-361.18" width="30.74" height="22.244" style="paint-order:markers stroke fill"/><g transform="translate(-.26417 60.21)"><rect transform="rotate(90)" x="134.08" y="-329.3" width="30.74" height="22.244" style="paint-order:markers stroke fill"/><rect transform="rotate(90)" x="134.08" y="-361.18" width="30.74" height="22.244" style="paint-order:markers stroke fill"/></g><g transform="translate(-.26417 120.42)"><rect transform="rotate(90)" x="134.08" y="-329.3" width="30.74" height="22.244" style="paint-order:markers stroke fill"/><rect transform="rotate(90)" x="134.08" y="-361.18" width="30.74" height="22.244" style="paint-order:markers stroke fill"/></g></g><path d="m304.79 120.77h68.132l0.23944 217.7h-68.371" fill="none" stroke="#fff" stroke-linejoin="round" stroke-opacity=".4" stroke-width="10"/></g><g transform="translate(3.8999 -1.4998)" style="font-variation-settings:normal;paint-order:markers stroke fill"><path d="m105.71 165.14v-125.44h110.06v30.341" fill="none" stroke="#fff" stroke-linejoin="round" stroke-opacity=".4" stroke-width="10"/><g fill="#fff" fill-opacity=".2"><rect x="114.31" y="48.192" width="30.74" height="22.244" stop-color="#000000" style="-inkscape-stroke:none;font-variation-settings:normal;paint-order:markers stroke fill"/><rect x="114.31" y="79.526" width="30.74" height="22.244" stop-color="#000000" style="-inkscape-stroke:none;font-variation-settings:normal;paint-order:markers stroke fill"/><rect x="114.31" y="110.86" width="30.74" height="22.244" stop-color="#000000" style="-inkscape-stroke:none;font-variation-settings:normal;paint-order:markers stroke fill"/><rect x="114.32" y="142.19" width="30.74" height="22.244" stop-color="#000000" style="-inkscape-stroke:none;font-variation-settings:normal;paint-order:markers stroke fill"/><path d="m153.69 48.192v22.244h22.244v-22.244z" stop-color="#000000" style="-inkscape-stroke:none;font-variation-settings:normal;paint-order:markers stroke fill"/><path d="m184.58 48.192v22.244h22.244v-22.244z" stop-color="#000000" style="-inkscape-stroke:none;font-variation-settings:normal;paint-order:markers stroke fill"/></g></g></g></svg>
