<?xml version="1.0" encoding="UTF-8"?>
<svg width="400" height="400" enable-background="new 0 0 86 86" version="1.1" viewBox="0 0 400 400" xml:space="preserve" xmlns="http://www.w3.org/2000/svg" xmlns:cc="http://creativecommons.org/ns#" xmlns:dc="http://purl.org/dc/elements/1.1/" xmlns:rdf="http://www.w3.org/1999/02/22-rdf-syntax-ns#"><metadata><rdf:RDF><cc:Work rdf:about=""><dc:format>image/svg+xml</dc:format><dc:type rdf:resource="http://purl.org/dc/dcmitype/StillImage"/></cc:Work></rdf:RDF></metadata><g transform="matrix(.89737 -.30841 .30841 .89737 -61.359 58.731)" fill="#fff"><path d="m187.31 11.536c-1.4034 0.05485-2.7846 0.6612-3.8457 1.8086-2.1222 2.2948-1.9901 5.7001 0.30469 7.8223 2.2948 2.1221 5.7001 1.9882 7.8223-0.30664 2.1221-2.2948 1.9901-5.7001-0.30469-7.8223-1.1474-1.0611-2.5732-1.5568-3.9766-1.502z" fill-opacity=".1" style="paint-order:markers stroke fill"/><path d="m198.51 63.375-35.061 102.13c1.0284 2.2108 4.6583 9.5417 13.996 17.986 10.854 9.8157 27.984 19.254 55.07 17.463 30.137-1.9928 50.35 8.8434 62.48 20.301 4.8518 4.5826 8.1963 9.1206 10.811 13.141l29.303-61.316c-3.6487-6.3718-28.094-47-67.389-56.381-35.281-8.4228-58.621-37.36-69.211-53.328z" fill-opacity=".1" style="paint-order:markers stroke fill"/><g fill-opacity=".4"><path d="m180.4 39.213a5.8011 5.8011 0 0 0-7.373 3.5996l-120.22 349.5a5.8011 5.8011 0 0 0 3.5996 7.373 5.8011 5.8011 0 0 0 7.373-3.5996l120.22-349.5a5.8011 5.8011 0 0 0-3.5976-7.373z" color="#000000" style="-inkscape-stroke:none"/><path transform="rotate(42.762)" d="m149.29-131.9c-9.396 0-17.137 7.7427-17.137 17.139 0 9.396 7.7407 17.137 17.137 17.137s17.137-7.7407 17.137-17.137c0-9.396-7.7407-17.139-17.137-17.139zm0 11.604c3.1256 0 5.5352 2.4095 5.5352 5.5352 0 3.1256-2.4095 5.5352-5.5352 5.5352-3.1256 0-5.5352-2.4095-5.5352-5.5352 0-3.1256 2.4095-5.5352 5.5352-5.5352z" color="#000000" fill-rule="evenodd" style="-inkscape-stroke:none"/><path d="m196.6 44.037a5.8017 5.8017 0 0 0-5.0586 3.9004l-39.887 116.19 0.3711-0.0937a5.8017 5.8017 0 0 0-0.24219 4.2051s5.1634 12.364 17.877 23.861 33.462 22.428 63.619 20.434c27.107-1.7924 43.542 7.5203 53.748 17.16 10.206 9.6398 13.713 19.338 13.713 19.338a5.8017 5.8017 0 0 0 10.686 0.51563l35.506-74.301a5.8017 5.8017 0 0 0-0.0996-5.2012s-27.017-52.835-76.418-64.629c-42.558-10.16-68.236-58.268-68.236-58.268a5.8017 5.8017 0 0 0-5.5781-3.1133zm1.9082 19.338c10.59 15.968 33.93 44.905 69.211 53.328 39.294 9.3809 63.74 50.009 67.389 56.381l-29.303 61.316c-2.6142-4.0201-5.9588-8.558-10.811-13.141-12.13-11.457-32.343-22.294-62.48-20.301-27.087 1.7911-44.216-7.6472-55.07-17.463-9.3378-8.4447-12.968-15.775-13.996-17.986z" color="#000000" style="-inkscape-stroke:none"/></g></g></svg>
