<?xml version="1.0" encoding="UTF-8"?>
<svg width="400" height="400" enable-background="new 0 0 86 86" version="1.1" viewBox="0 0 400 400" xml:space="preserve" xmlns="http://www.w3.org/2000/svg" xmlns:cc="http://creativecommons.org/ns#" xmlns:dc="http://purl.org/dc/elements/1.1/" xmlns:rdf="http://www.w3.org/1999/02/22-rdf-syntax-ns#"><metadata><rdf:RDF><cc:Work rdf:about=""><dc:format>image/svg+xml</dc:format><dc:type rdf:resource="http://purl.org/dc/dcmitype/StillImage"/></cc:Work></rdf:RDF></metadata><g transform="translate(-421.04 16.433)" fill="#fff" fill-opacity=".1"><path d="m579.3 326.79c12.335 8.8344 26.057 16.576 41.174 23.021-17.895 3.3776-35.185 4.6996-50.758 3.5703-18.873-5.7097-36.734-14.532-52.793-26.164 7.9447 1.3632 16.171 2.1304 24.584 2.2812 12.2 0.21876 24.875-0.74281 37.793-2.709z" style="paint-order:markers stroke fill"/><path d="m641.53 310.21c6.9549 9.3357 14.347 18.619 22.158 27.846-1.3491 0.47649-2.6989 0.94343-4.0508 1.4004-18.392-4.7638-34.812-11.274-49.35-19.262 10.416-2.7767 20.857-6.1151 31.242-9.9844z" style="paint-order:markers stroke fill"/><path d="m677.54 294.61c1.6297 9.6867 3.0069 19.59 4.1524 29.699-1.4078-1.6533-2.8465-3.3047-4.2246-4.9609-4.9694-5.9721-9.7183-11.961-14.311-17.971 4.8346-2.154 9.6301-4.4072 14.383-6.7676z" style="paint-order:markers stroke fill"/><path d="m725.82 265.82c-3.9143 17.698-10.352 35.664-19.643 53.666-0.70955 0.37389-1.429 0.72858-2.1426 1.0977-0.21448-1.8461-0.39639-3.718-0.62695-5.5508-1.3586-10.8-3.0326-21.337-4.9336-31.688 9.4433-5.4623 18.583-11.315 27.346-17.525z" style="paint-order:markers stroke fill"/><path d="m798.38 189.4c-8.3656 15.144-19.563 29.541-32.697 42.9-4.4291 4.5051-9.1104 8.885-13.963 13.164-1.8199 17.652-5.78 35.586-12.146 53.564 16.364-11.619 30.421-24.359 40.791-37.43 10.957-22.389 17.189-46.996 18.016-72.199z" style="paint-order:markers stroke fill"/><path d="m465.19 268.17c16.253 5.7443 35.096 7.7829 55 7.0684 2.8949-0.10392 5.8275-0.28184 8.7773-0.5 7.5334 11.323 16.291 21.998 26.291 31.834-4.5448 0.25969-9.0038 0.36887-13.346 0.29102-32.693-0.58628-58.028-10.423-72.344-31.043-1.5176-2.5018-2.9738-5.0526-4.3789-7.6504z" style="paint-order:markers stroke fill"/><path d="m607.17 258.13c6.3791 11.041 13.264 22.02 20.688 32.934-14.654 5.135-29.323 9.1299-43.555 11.811-11.693-9.3617-21.77-19.868-30.316-31.279 17.382-2.9334 35.284-7.4726 53.184-13.465z" style="paint-order:markers stroke fill"/><path d="m663.73 234.45c3.5264 11.98 6.6569 24.299 9.375 36.977-7.2097 3.7497-14.518 7.3263-21.939 10.557-0.54899 0.23894-1.1045 0.44569-1.6543 0.68164-1.0452-1.4993-2.1191-2.9945-3.1426-4.4961-6.3202-9.2724-12.197-18.597-17.717-27.955 3.3206-1.3187 6.6506-2.6098 9.9492-4.0156 8.4984-3.6219 16.876-7.5828 25.129-11.748z" style="paint-order:markers stroke fill"/><path d="m728.35 193.39c2.0063 13.176 2.6949 26.749 1.9082 40.584-11.232 9.2759-23.558 17.983-36.604 25.928-0.80319-3.5015-1.6159-6.997-2.4805-10.447-2.2041-8.7964-4.6159-17.419-7.2051-25.893 15.856-9.1486 30.789-19.285 44.381-30.172z" style="paint-order:markers stroke fill"/><path d="m787.42 122.14c-8.3264 19.282-22.224 37.449-39.428 54.092 2.5644 11.985 4.1753 24.307 4.7148 36.867 23.375-24.792 37.749-51.807 38.975-77.803-1.254-4.4031-2.647-8.7978-4.2617-13.156z" style="paint-order:markers stroke fill"/><path d="m445.1 206.03c2.971 1.2424 6.0612 2.299 9.248 3.1172 13.594 3.4902 29.212 3.7465 46.262 1.9258 0.89468 3.3833 1.8413 6.7516 2.8887 10.094 3.3813 10.789 7.6294 21.326 12.709 31.506-29.022 0.54733-51.894-5.8997-65.248-18.932-2.7238-9.1802-4.6654-18.444-5.8594-27.711z" style="paint-order:markers stroke fill"/><path d="m575.48 193.2c-17.89 6.1802-35.537 11.061-52.303 14.346 0.63 2.2886 1.1993 4.5954 1.9082 6.8574 3.9458 12.591 9.0614 24.766 15.426 36.305 17.696-2.3384 36.537-6.7212 55.564-12.838-7.6914-14.793-14.531-29.693-20.596-44.67z" style="paint-order:markers stroke fill"/><path d="m638.31 166.79c-6.9656 3.4528-14.002 6.8218-21.15 9.9941-6.8268 3.0297-13.717 5.8644-20.613 8.5938 5.5202 13.582 11.686 27.081 18.615 40.5 0.76254 1.4766 1.5729 2.9512 2.3535 4.4258 4.0829-1.5824 8.1586-3.1976 12.209-4.9238 9.1582-3.9031 18.203-8.1792 27.037-12.748-5.4766-15.855-11.643-31.116-18.451-45.842z" style="paint-order:markers stroke fill"/><path d="m705.45 126.27c-14.1 10.535-30.067 20.698-47.197 30.135 6.6817 14.378 12.804 29.237 18.289 44.635 0.0544 0.15266 0.1001 0.31013 0.1543 0.46289 16.942-10.072 32.614-21.203 46.188-33.023-3.8932-13.573-9.1513-26.615-15.6-38.947-0.57938-1.108-1.2355-2.1657-1.834-3.2617z" style="paint-order:markers stroke fill"/><path d="m756.64 69.188c-1.2701 3.1779-2.8105 6.3076-4.5781 9.3574-6.6462 11.467-16.547 22.474-28.691 33.25 1.3609 2.3925 2.6922 4.805 3.9707 7.25 5.3316 10.196 9.9043 20.872 13.664 31.916 17.785-19.468 29.1-39.849 31.725-59.262-4.8291-8.0029-10.21-15.525-16.09-22.512z" style="paint-order:markers stroke fill"/><path d="m448.21 143.48c-2.6469 11.39-4.1598 23.077-4.5059 34.887 3.3716 3.925 8.5025 6.855 16.264 8.8477 9.1765 2.356 21.651 2.8371 35.93 1.5078-2.3968-14.55-3.4786-29.291-3.3145-44.016-12.842 1.9081-24.491 2.5288-34.725 1.0527-3.3024-0.47637-6.5468-1.2411-9.6484-2.2793z" style="paint-order:markers stroke fill"/><path d="m554.04 128.79c-13.222 4.5917-26.224 8.4866-38.557 11.438-0.50297 15.137 0.41636 30.309 2.8438 45.172 15.43-3.0178 32.064-7.5753 49.096-13.41-5.1024-14.335-9.5338-28.739-13.383-43.199z" style="paint-order:markers stroke fill"/><path d="m606 107.56h0.01c7.9336 12.559 15.394 25.501 22.33 38.883-6.7042 3.3334-13.485 6.5835-20.369 9.6387-6.4533 2.8639-12.968 5.538-19.486 8.1133-0.25895-0.73004-0.53566-1.459-0.79102-2.1895-4.7603-13.617-8.8777-27.313-12.465-41.082 3.8022-1.5104 7.6036-3.0558 11.393-4.6602 6.5308-2.7653 12.987-5.6964 19.379-8.7031z" style="paint-order:markers stroke fill"/><path d="m665.21 74.102c-11.697 8.1192-24.911 15.987-38.965 23.395 7.7774 12.459 15.129 25.291 21.994 38.547 16.699-9.2651 32.109-19.157 45.316-29.145-8.3313-11.966-17.904-22.921-28.346-32.797z" style="paint-order:markers stroke fill"/><path d="m709.02 29.477c-1.9738 4.2403-4.558 8.3332-7.5781 12.264-4.8307 6.2867-10.939 12.357-17.924 18.324 10.06 9.8488 19.281 20.67 27.5 32.299 9.5566-8.8447 17.021-17.509 21.459-25.166 3.9636-6.8388 5.5513-12.453 5.3965-17.162-8.9543-7.8345-18.623-14.723-28.854-20.559z" style="paint-order:markers stroke fill"/><path d="m487.44 66.824c-14.231 16.285-25.248 34.969-32.688 55 1.5784 0.59799 3.6406 1.1489 6.332 1.5371 7.2035 1.0391 17.757 0.64968 30.035-1.291 0.85514-0.13515 1.7806-0.33097 2.6524-0.48047 1.8349-18.455 5.6382-36.632 11.193-54.074-3.2608 0.3483-6.4036 0.4912-9.4395 0.37109-2.6764-0.10587-5.4109-0.37378-8.0859-1.0625z" style="paint-order:markers stroke fill"/><path d="m539.81 59.102c-2.9616 0.99692-5.8764 1.918-8.7578 2.7715-6.5512 17.303-11.112 35.691-13.582 54.455 9.9676-2.6408 20.443-5.8968 31.143-9.6562-0.36539-1.6233-0.746-3.2466-1.0977-4.8711-3.0715-14.19-5.6059-28.431-7.7051-42.699z" style="paint-order:markers stroke fill"/><path d="m564.28 49.672c-0.26399 0.11387-0.52486 0.23253-0.78906 0.3457-0.66835 0.2863-1.3387 0.5542-2.0078 0.83594 2.1366 15.458 4.7673 30.839 8.0488 46.125 0.11918 0.55509 0.25225 1.1073 0.37305 1.6621 2.6336-1.0634 5.2708-2.1156 7.8945-3.2266 5.2436-2.2202 10.436-4.5605 15.59-6.9492-9.1972-13.334-18.935-26.233-29.109-38.793z" style="paint-order:markers stroke fill"/><path d="m599.01 32.146c-4.3482 2.591-8.9573 5.1169-13.709 7.5781 9.9403 12.504 19.462 25.387 28.508 38.701 12.055-6.2881 23.366-12.874 33.443-19.533-14.921-11.214-31.178-20.31-48.242-26.746z" style="paint-order:markers stroke fill"/><path d="m630.52 6.418c-1.5026 2.1288-3.235 4.1066-5.0976 6.0332-1.3871 1.4347-2.9071 2.8354-4.4883 4.2246 16.14 7.4339 31.415 16.969 45.471 28.236 7.2212-5.9569 13.074-11.758 17.08-16.971 2.4018-3.1257 4.0308-5.9405 5.1055-8.3945-18.38-7.5685-38.009-12.054-58.07-13.129z" style="paint-order:markers stroke fill"/></g><path d="m198.08-0.0076541c-24.633 0.20874-49.585 5.068-73.679 14.918-0.0395-0.0013-0.0786-0.0078-0.1181-0.0091v0.05451c-1.2764 0.52272-2.5626 0.99328-3.8339 1.5445-95.008 41.193-141.89 147.64-111 244.26l-0.31797 0.26346c0.2128 0.25858 0.44723 0.49009 0.66321 0.74497 1.9461 5.9769 4.1637 11.925 6.7138 17.807 3.8393 8.8552 8.27 17.261 13.182 25.256 0.0087 0.0126 0.01861 0.0237 0.02726 0.0363 25.927 42.177 65.931 72.018 111.1 86.053l-0.0999 0.9085c1.3913 0.1569 2.8088 0.25035 4.2154 0.3725 43.029 12.367 90.429 10.474 134.64-8.6944 44.441-19.268 78.342-52.821 98.69-92.958 0.67297-0.87257 1.3763-1.7369 2.026-2.6165l-0.57238-0.41785c24.642-50.687 27.926-111.39 3.7884-167.06-32.915-75.916-107.49-121.12-185.42-120.46zm11.402 22.858c20.062 1.075 39.691 5.5594 58.071 13.128-1.0746 2.454-2.704 5.2688-5.1058 8.3945-4.0058 5.2132-9.8586 11.014-17.08 16.971-14.056-11.267-29.33-20.802-45.47-28.236 1.5812-1.3892 3.1009-2.7898 4.488-4.2245 1.8627-1.9266 3.594-3.9036 5.0967-6.0324zm78.494 23.058c10.23 5.8356 19.9 12.725 28.854 20.559 0.15485 4.7091-1.4329 10.323-5.3965 17.162-4.4376 7.6566-11.902 16.321-21.459 25.165-8.2187-11.629-17.44-22.448-27.5-32.297 6.9845-5.9669 13.094-12.038 17.925-18.324 3.0201-3.9304 5.603-8.0245 7.5769-12.265zm-110 2.671c17.065 6.4359 33.32 15.532 48.241 26.746-10.078 6.6591-21.387 13.245-33.442 19.533-9.046-13.314-18.568-26.198-28.509-38.702 4.7517-2.4612 9.3611-4.9859 13.709-7.5769zm-34.732 17.525c10.174 12.56 19.911 25.459 29.108 38.793-5.1539 2.3887-10.346 4.7298-15.59 6.95-2.6237 1.111-5.2613 2.1618-7.8949 3.2252-0.1208-0.55485-0.25332-1.1075-0.3725-1.6626-3.2815-15.286-5.9127-30.667-8.0493-46.125 0.66916-0.28174 1.3394-0.54953 2.0078-0.83582 0.2642-0.11317 0.5264-0.23137 0.79039-0.34524zm-24.475 9.4302c2.0992 14.269 4.6325 28.51 7.7041 42.7 0.35166 1.6245 0.7339 3.2463 1.0993 4.8696-10.7 3.7594-21.176 7.0166-31.143 9.6574 2.4697-18.764 7.0309-37.153 13.582-54.456 2.8815-0.85354 5.7964-1.774 8.758-2.7709zm-52.366 7.7223c2.675 0.68872 5.4092 0.95707 8.0857 1.0629 3.0359 0.1201 6.1785-0.02419 9.4393-0.37249-5.5551 17.442-9.3578 35.619-11.193 54.074-0.8718 0.1495-1.7977 0.34635-2.6528 0.4815-12.278 1.9407-22.832 2.3292-30.035 1.2901-2.6915-0.38824-4.7538-0.93737-6.3322-1.5354 7.44-20.031 18.457-38.716 32.688-55.001zm269.2 2.3621c5.8802 6.9867 11.26 14.51 16.09 22.513-2.6245 19.413-13.939 39.793-31.725 59.261-3.7597-11.044-8.3323-21.719-13.664-31.916-1.2785-2.445-2.6092-4.8573-3.9701-7.2498 12.144-10.776 22.044-21.784 28.69-33.251 1.7676-3.0498 3.3088-6.1796 4.5788-9.3576zm-91.431 4.915c10.442 9.8757 20.014 20.831 28.345 32.797-13.207 9.9872-28.617 19.88-45.316 29.145-6.8647-13.256-14.217-26.089-21.995-38.548 14.054-7.4071 27.269-15.275 38.966-23.394zm-59.207 33.46h9e-3c7.9336 12.559 15.395 25.502 22.331 38.884-6.7042 3.3334-13.484 6.584-20.369 9.6392-6.4533 2.8639-12.969 5.5377-19.487 8.1129-0.25895-0.73004-0.53503-1.459-0.79039-2.1895-4.7603-13.617-8.8775-27.313-12.465-41.082 3.8022-1.5104 7.6036-3.0562 11.393-4.6606 6.5308-2.7653 12.987-5.6967 19.378-8.7034zm181.42 14.581c1.6148 4.3585 3.0069 8.752 4.2609 13.155-1.2252 25.996-15.6 53.012-38.975 77.804-0.53959-12.56-2.1508-24.882-4.7151-36.867 17.204-16.643 31.102-34.81 39.429-54.092zm-81.974 4.1246c0.59853 1.096 1.2558 2.1535 1.8352 3.2615 6.4483 12.332 11.706 25.374 15.599 38.947-13.573 11.82-29.247 22.952-46.188 33.024-0.0542-0.15276-0.10005-0.31068-0.15443-0.46334-5.4848-15.398-11.606-30.257-18.288-44.635 17.131-9.4372 33.097-19.6 47.197-30.135zm-151.4 2.5256c3.849 14.46 8.2798 28.865 13.382 43.199-17.031 5.8348-33.666 10.392-49.095 13.409-2.4274-14.863-3.3466-30.034-2.8436-45.171 12.332-2.951 25.335-6.8463 38.557-11.438zm-105.83 14.69c3.1016 1.0382 6.3459 1.804 9.6483 2.2803 10.233 1.4761 21.881 0.85419 34.723-1.0539-0.16415 14.725 0.91922 29.467 3.316 44.017-14.278 1.3293-26.755 0.84793-35.931-1.5081-7.7612-1.9927-12.891-4.9238-16.262-8.8488 0.34605-11.81 1.8593-23.496 4.5062-34.886zm190.09 23.303c6.8084 14.726 12.975 29.988 18.452 45.843-8.8337 4.5689-17.879 8.8432-27.037 12.746-4.0503 1.7262-8.1273 3.3417-12.21 4.9241-0.78059-1.4746-1.5905-2.9478-2.353-4.4244-6.9296-13.419-13.095-26.919-18.615-40.501 6.8958-2.7294 13.787-5.5648 20.614-8.5944 7.1485-3.1724 14.184-6.5407 21.15-9.9935zm160.07 22.613c-0.82635 25.204-7.0581 49.81-18.016 72.199-10.371 13.071-24.427 25.811-40.792 37.43 6.3665-17.979 10.327-35.913 12.147-53.565 4.8525-4.279 9.5345-8.6591 13.964-13.164 13.134-13.36 24.331-27.756 32.697-42.899zm-222.89 3.7975c6.0652 14.977 12.904 29.878 20.596 44.671-19.028 6.1167-37.868 10.499-55.564 12.837-6.3644-11.539-11.481-23.713-15.426-36.304-0.70888-2.262-1.2778-4.5705-1.9078-6.8592 16.766-3.2847 34.413-8.165 52.302-14.345zm152.86 0.1908c2.0063 13.176 2.6946 26.748 1.9078 40.583-11.232 9.2759-23.558 17.984-36.603 25.929-0.80319-3.5015-1.6157-6.9975-2.4802-10.448-2.2041-8.7964-4.6152-17.419-7.2044-25.892 15.856-9.1486 30.789-19.285 44.38-30.171zm-283.25 12.646c2.971 1.2424 6.0617 2.2979 9.2485 3.1162 13.594 3.4902 29.211 3.7467 46.261 1.926 0.89468 3.3833 1.8416 6.7513 2.889 10.093 3.3813 10.789 7.6304 21.327 12.71 31.507-29.022 0.54733-51.895-5.9012-65.249-18.933-2.7238-9.1802-4.6659-18.442-5.8598-27.709zm218.63 28.418c3.5264 11.98 6.6576 24.298 9.3757 36.976-7.2097 3.7497-14.519 7.3265-21.94 10.557-0.54899 0.23895-1.1037 0.44543-1.6535 0.68138-1.0452-1.4993-2.1199-2.9955-3.1434-4.4971-6.3202-9.2724-12.196-18.597-17.716-27.955 3.3206-1.3187 6.6495-2.6098 9.9481-4.0156 8.4984-3.6219 16.877-7.5816 25.129-11.747zm-56.554 23.676c6.3791 11.041 13.263 22.019 20.687 32.933-14.654 5.135-29.322 9.1299-43.554 11.81-11.693-9.3617-21.77-19.868-30.317-31.28 17.382-2.9334 35.284-7.4717 53.184-13.464zm118.65 7.695c-3.9143 17.698-10.351 35.663-19.642 53.665-0.70955 0.37389-1.4305 0.7302-2.1441 1.0993-0.21448-1.8461-0.39631-3.7181-0.62687-5.5509-1.3586-10.8-3.0322-21.338-4.9332-31.688 9.4433-5.4623 18.583-11.314 27.346-17.525zm-260.63 2.3439c16.253 5.7444 35.097 7.7827 55.001 7.0681 2.8949-0.10392 5.8263-0.28151 8.7761-0.49968 7.5334 11.323 16.292 21.998 26.292 31.834-4.5448 0.25969-9.004 0.36858-13.346 0.29072-32.693-0.58628-58.028-10.423-72.344-31.043-1.5176-2.5018-2.9739-5.0518-4.379-7.6496zm212.35 26.446c1.6297 9.6867 3.0064 19.589 4.1518 29.699-1.4078-1.6533-2.8464-3.3042-4.2245-4.9604-4.9694-5.9721-9.7166-11.96-14.309-17.97 4.8346-2.154 9.6289-4.408 14.382-6.7683zm-36.013 15.599c6.9549 9.3358 14.347 18.619 22.158 27.846-1.3491 0.47649-2.7 0.94213-4.0519 1.3991-18.393-4.7638-34.812-11.272-49.35-19.26 10.416-2.7767 20.858-6.1152 31.243-9.9844zm-62.232 16.58c12.335 8.8344 26.057 16.576 41.173 23.021-17.895 3.3776-35.185 4.6997-50.758 3.5704-18.873-5.7097-36.734-14.533-52.793-26.165 7.9447 1.3632 16.171 2.1295 24.584 2.2803 12.2 0.21876 24.876-0.74115 37.794-2.7073z" color="#000000" fill="#fff" fill-opacity=".4" style="-inkscape-stroke:none"/></svg>
