<?xml version="1.0" encoding="UTF-8"?>
<svg width="400" height="400" enable-background="new 0 0 86 86" version="1.1" viewBox="0 0 400 400" xml:space="preserve" xmlns="http://www.w3.org/2000/svg" xmlns:cc="http://creativecommons.org/ns#" xmlns:dc="http://purl.org/dc/elements/1.1/" xmlns:rdf="http://www.w3.org/1999/02/22-rdf-syntax-ns#"><metadata><rdf:RDF><cc:Work rdf:about=""><dc:format>image/svg+xml</dc:format><dc:type rdf:resource="http://purl.org/dc/dcmitype/StillImage"/></cc:Work></rdf:RDF></metadata><path d="m13.462 0.1021c-2.2982-0.3375-4.6733 0.15869-6.8278 1.533l-0.00391 0.0075c-4.3089 2.7476-6.908 8.476-6.6071 14.564l4.9139 98.896c16.272-23.316 51.048-15.225 133.17 23.571 33.16-29.337 41.015 37.815 39.592 63.342h-2e-3c-13.615 46.559-26.788-1.7425-47.314 23.162-17.115 32.788 6.0284 102.51-40.178 61.269-19.315-17.239-42.094 28.691-76.714 0.90101l2.539 51.11 0.63669-0.60232c-0.1077 3.8182 0.92423 7.5502 2.8886 10.454 0 0 19.772 24.811 53.355 39.914 33.585 15.102 82.148 20.733 138.48-14.493 50.635-31.663 89.626-25.613 116.91-12.493 27.287 13.119 41.754 33.128 41.754 33.128 7.2309 9.955 20.375 3.9819 20.935-9.5138l8.9801-333.44c0.19933-4.8066-1.4088-9.4516-4.3377-12.528 9.6e-4 0.01163-27.857-0.80368-68.026 0.36782 15.133 26.735-72.096 97.941-3.1483 97.941 60.041 0 1.4445 53.845-4.5486 51.299-11.986-5.0947-52.34 22.936-57.742 29.733-5.4028 6.7977-37.688 27.28-46.719 4.278-9.0308-23.003 11.869-19.832 8.3668-45.834-3.5028-26.002-76.444-119.9-51.639-122.88-89.84 18.214-152.36-50.219-152.36-50.219-1.8479-1.9621-4.0687-3.1333-6.3669-3.4708zm158.72 53.69c23.022-3.7633 44.251-6.6717 67.436-9.0743-22.289 2.1916-45.171 5.1008-67.436 9.0743zm168.92 164.53c13.297 0.26418 11.712 32.146 5.8338 51.664-6.4867 21.537-8.3217 25.977-19.329 32.923-11.008 6.9461-39.577-1.3232-38.1-22.305 1.4808-20.984 28.784-53.854 46.978-61.301 1.7059-0.69815 3.2414-1.0073 4.617-0.98zm-190.44 40.165c3.6861 0.16495 8.1956 13.77 21.915 12.629 23.107-1.9221 24.185-12.18 32.593-12.377 32.969-0.77324 60.315 33.83 57.711 46.974-2.6049 13.143-46.014 70.201-51.922 34.673-5.9074-35.528-19.12-3.2088-27.565 15.628-8.4446 18.837-45.488-1.6324-56.75-0.66898-11.262 0.96308 23.596-36.721 14.921-69.294 4.4381-21.499 6.5752-27.677 9.0972-27.564z" fill="#fff" fill-opacity=".2" stroke-width="1.1242" style="-inkscape-stroke:none"/><g transform="matrix(1 0 0 1.2639 .0079945 -52.776)" fill="#fff" fill-opacity=".4"><path d="m177.71 201.59c1.4228-20.198-6.4314-73.329-39.593-50.117-82.13-30.696-116.91-37.099-133.18-18.651 2.3833 37.953 6.0921 97.014 8.558 136.28 34.622 21.991 57.402-14.353 76.718-0.712 46.209 32.632 23.064-22.535 40.18-48.477 20.527-19.705 33.7 18.512 47.316-18.326z" color="#000000" style="-inkscape-stroke:none"/><path d="m215.47 217.8c9.0309 18.199 41.318 1.9944 46.721-3.384 5.4023-5.3783 45.758-27.556 57.745-23.525 5.9935 2.0154 64.592-40.588 4.5485-40.588-69.767 0 20.522-56.986 2.7172-77.532-66.873 2.7154-107 5.3345-155.01 11.543-24.807 2.3553 48.137 76.652 51.64 97.225 3.5026 20.573-17.399 18.062-8.3678 36.262z" color="#000000" style="-inkscape-stroke:none"/><path d="m141.58 268.08c8.6753 25.772-26.185 55.588-14.923 54.826 11.262-0.76234 48.307 15.434 56.752 0.52954s21.659-40.474 27.566-12.364c5.9075 28.11 49.321-17.035 51.925-27.433s-24.743-37.779-57.713-37.167c-8.4073 0.156-9.4874 8.2714-32.595 9.7922s-20.088-30.053-31.013 11.818z" color="#000000" style="-inkscape-stroke:none"/><path d="m289.53 263.77c-1.4797 16.603 27.093 23.146 38.101 17.65s12.843-9.0079 19.33-26.048c6.4869-17.04 7.7468-45.994-10.45-40.102-18.196 5.8918-45.502 31.898-46.981 48.501z" color="#000000" style="-inkscape-stroke:none"/></g></svg>
