<?xml version="1.0" encoding="UTF-8"?>
<svg width="400" height="400" enable-background="new 0 0 86 86" version="1.1" viewBox="0 0 400 400" xml:space="preserve" xmlns="http://www.w3.org/2000/svg" xmlns:cc="http://creativecommons.org/ns#" xmlns:dc="http://purl.org/dc/elements/1.1/" xmlns:rdf="http://www.w3.org/1999/02/22-rdf-syntax-ns#"><metadata><rdf:RDF><cc:Work rdf:about=""><dc:format>image/svg+xml</dc:format><dc:type rdf:resource="http://purl.org/dc/dcmitype/StillImage"/></cc:Work></rdf:RDF></metadata><g transform="translate(.1309 -18.892)"><path d="m186.81 103.09-2e-3 0.2461-79.916 0.75195a10.001 10.001 0 0 0-8.4609 15.178l48.361 79.932c4.906-4.5416 10.39-8.4623 16.334-11.639l-38.502-63.637 75.244-0.70703 75.246 0.70703-38.502 63.637c5.944 3.1764 11.428 7.097 16.334 11.639l48.361-79.932a10.001 10.001 0 0 0-8.4609-15.178l-79.916-0.75195-2e-3 -0.2461-13.061 0.12305z" color="#000000" fill="#fff" fill-opacity=".2" stroke-linejoin="round" style="-inkscape-stroke:none"/><path d="m200 183.29a73.204 73.204 0 0 0-73.205 73.203 73.204 73.204 0 0 0 73.205 73.205 73.204 73.204 0 0 0 73.205-73.205 73.204 73.204 0 0 0-73.205-73.203zm-2.5547 33.625c2.7547 0.0115 5.561 0.48461 8.2871 1.4492 10.905 3.8584 18.103 14.494 16.414 25.537-0.78564 5.1359-3.4656 9.4929-7.2598 12.594 3.7936 3.1008 6.4742 7.4563 7.2598 12.592 1.6893 11.044-5.5094 21.679-16.414 25.537-10.905 3.8584-23.093-0.14867-28.123-10.092l8.9238-4.5137c2.5635 5.0677 9.116 7.5652 15.863 5.1777 6.7473-2.3874 10.744-8.8524 9.8652-14.598-0.76109-4.9754-4.6963-8.5815-10.234-9.1016-1.1421 0-2.2926-0.0195-3.4726-0.0195v-9.9668c1.1712 0 2.3272-0.0195 3.4726-0.0195 5.5381-0.52007 9.4733-4.1262 10.234-9.1016 0.87886-5.7453-3.1179-12.21-9.8652-14.598-6.7473-2.3874-13.3 0.11197-15.863 5.1797l-8.9238-4.5156c3.7722-7.4573 11.572-11.575 19.836-11.541z" fill="#fff" fill-opacity=".1" style="font-variation-settings:normal;paint-order:markers stroke fill"/><circle cx="200" cy="256.49" r="73.204" fill="none" stroke="#fff" stroke-opacity=".4" stroke-width="10" style="font-variation-settings:normal;paint-order:markers stroke fill"/><path d="m197.44 216.91c-8.2642-0.0344-16.064 4.0837-19.836 11.541l8.9238 4.5156c2.5635-5.0677 9.1159-7.5671 15.863-5.1797 6.7473 2.3874 10.744 8.8524 9.8652 14.598-0.76109 4.9754-4.6963 8.5815-10.234 9.1016-1.1455 0-2.3015 0.0195-3.4727 0.0195v9.9668c1.1801 0 2.3305 0.0195 3.4727 0.0195 5.5381 0.52007 9.4733 4.1262 10.234 9.1016 0.87886 5.7453-3.1179 12.21-9.8652 14.598-6.7473 2.3874-13.3-0.11001-15.863-5.1777l-8.9238 4.5137c5.0297 9.9431 17.218 13.95 28.123 10.092 10.905-3.8585 18.103-14.494 16.414-25.537-0.78558-5.1355-3.4661-9.491-7.2598-12.592 3.7942-3.1009 6.4741-7.4578 7.2598-12.594 1.6893-11.044-5.5094-21.679-16.414-25.537-2.7262-0.96461-5.5324-1.4377-8.2871-1.4492z" color="#000000" fill="#fff" fill-opacity=".6" style="-inkscape-stroke:none;paint-order:markers stroke fill"/></g></svg>
